# Blender 4.0.1
# www.blender.org
mtllib testroom.mtl
o Room
v 0.000000 7.000000 0.000000
v 0.000000 0.000000 0.000000
v 10.000000 7.000000 0.000000
v 10.000000 0.000000 0.000000
v 10.000000 7.000000 -5.000000
v 10.000000 0.000000 -5.000000
v 13.000000 7.000000 -5.000000
v 13.000000 0.000000 -5.000000
v 13.000000 7.000000 -8.000000
v 13.000000 0.000000 -8.000000
v 0.000000 7.000000 -8.000000
v 0.000000 0.000000 -8.000000
v 0.000000 7.000000 -0.100000
v 0.000000 0.000000 -0.100000
v 9.900000 7.000000 -0.100000
v 9.900000 0.000000 -0.100000
v 9.900000 7.000000 -5.100000
v 9.900000 0.000000 -5.100000
v 12.900000 7.000000 -5.100000
v 12.900000 0.000000 -5.100000
v 12.900000 7.000000 -7.900000
v 12.900000 0.000000 -7.900000
v 0.000000 7.000000 -7.900000
v 0.000000 0.000000 -7.900000
vn -0.0000 -0.0000 1.0000
vn 1.0000 -0.0000 -0.0000
vn -0.0000 -0.0000 -1.0000
vn -1.0000 -0.0000 -0.0000
vn -0.0000 1.0000 -0.0000
vn -0.0000 -1.0000 -0.0000
vt 0.000123 0.000123
vt 0.205955 0.000123
vt 0.205955 0.294168
vt 0.000123 0.294168
vt 0.205955 0.441191
vt 0.000123 0.441191
vt 0.205955 0.529404
vt 0.000123 0.529404
vt 0.205955 0.617618
vt 0.000123 0.617618
vt 0.205955 0.999877
vt 0.000123 0.999877
s 0
usemtl Wall_material
f 1/1/1 2/2/1 4/3/1 3/4/1
f 3/4/2 4/3/2 6/5/2 5/6/2
f 5/6/1 6/5/1 8/7/1 7/8/1
f 7/8/2 8/7/2 10/9/2 9/10/2
f 9/10/3 10/9/3 12/11/3 11/12/3
f 13/1/3 15/4/3 16/3/3 14/2/3
f 15/4/4 17/6/4 18/5/4 16/3/4
f 17/6/3 19/8/3 20/7/3 18/5/3
f 19/8/4 21/10/4 22/9/4 20/7/4
f 21/10/1 23/12/1 24/11/1 22/9/1
f 2/2/4 1/1/4 13/1/4 14/2/4
f 1/1/5 3/4/5 15/4/5 13/1/5
f 3/4/5 5/6/5 17/6/5 15/4/5
f 5/6/5 7/8/5 19/8/5 17/6/5
f 7/8/5 9/10/5 21/10/5 19/8/5
f 10/9/6 8/7/6 20/7/6 22/9/6
f 9/10/5 11/12/5 23/12/5 21/10/5
f 12/11/6 10/9/6 22/9/6 24/11/6
f 8/7/6 6/5/6 18/5/6 20/7/6
f 4/3/6 2/2/6 14/2/6 16/3/6
f 11/12/4 12/11/4 24/11/4 23/12/4
f 6/5/6 4/3/6 16/3/6 18/5/6
o Baseboard
v 0.000000 0.120000 0.000000
v 0.000000 0.000000 0.000000
v 10.000000 0.120000 0.000000
v 10.000000 0.000000 0.000000
v 10.000000 0.120000 -5.000000
v 10.000000 0.000000 -5.000000
v 13.000000 0.120000 -5.000000
v 13.000000 0.000000 -5.000000
v 13.000000 0.120000 -8.000000
v 13.000000 0.000000 -8.000000
v 0.000000 0.120000 -8.000000
v 0.000000 0.000000 -8.000000
v 0.000000 0.120000 -0.015000
v 0.000000 0.000000 -0.015000
v 9.985000 0.120000 -0.015000
v 9.985000 0.000000 -0.015000
v 9.985000 0.120000 -5.015000
v 9.985000 0.000000 -5.015000
v 12.985000 0.120000 -5.015000
v 12.985000 0.000000 -5.015000
v 12.985000 0.120000 -7.985000
v 12.985000 0.000000 -7.985000
v 0.000000 0.120000 -7.985000
v 0.000000 0.000000 -7.985000
vn -0.0000 -0.0000 1.0000
vn 1.0000 -0.0000 -0.0000
vn -0.0000 -0.0000 -1.0000
vn -1.0000 -0.0000 -0.0000
vn -0.0000 1.0000 -0.0000
vn -0.0000 -1.0000 -0.0000
vt 0.209730 0.999877
vt 0.206201 0.999877
vt 0.206201 0.705832
vt 0.209730 0.705832
vt 0.206201 0.558809
vt 0.209730 0.558809
vt 0.206201 0.470595
vt 0.209730 0.470595
vt 0.206201 0.382382
vt 0.209730 0.382382
vt 0.206201 0.000123
vt 0.209730 0.000123
s 0
usemtl Baseboard_material
f 25/13/7 26/14/7 28/15/7 27/16/7
f 27/16/8 28/15/8 30/17/8 29/18/8
f 29/18/7 30/17/7 32/19/7 31/20/7
f 31/20/8 32/19/8 34/21/8 33/22/8
f 33/22/9 34/21/9 36/23/9 35/24/9
f 37/13/9 39/16/9 40/15/9 38/14/9
f 39/16/10 41/18/10 42/17/10 40/15/10
f 41/18/9 43/20/9 44/19/9 42/17/9
f 43/20/10 45/22/10 46/21/10 44/19/10
f 45/22/7 47/24/7 48/23/7 46/21/7
f 26/14/10 25/13/10 37/13/10 38/14/10
f 25/13/11 27/16/11 39/16/11 37/13/11
f 27/16/11 29/18/11 41/18/11 39/16/11
f 29/18/11 31/20/11 43/20/11 41/18/11
f 31/20/11 33/22/11 45/22/11 43/20/11
f 34/21/12 32/19/12 44/19/12 46/21/12
f 33/22/11 35/24/11 47/24/11 45/22/11
f 36/23/12 34/21/12 46/21/12 48/23/12
f 32/19/12 30/17/12 42/17/12 44/19/12
f 28/15/12 26/14/12 38/14/12 40/15/12
f 35/24/10 36/23/10 48/23/10 47/24/10
f 30/17/12 28/15/12 40/15/12 42/17/12
o Floor
v 0.000000 0.000000 0.000000
v 10.000000 0.000000 0.000000
v 10.000000 0.000000 -5.000000
v 13.000000 0.000000 -5.000000
v 13.000000 0.000000 -8.000000
v 0.000000 0.000000 -8.000000
vn -0.0000 1.0000 -0.0000
vt 0.492330 0.458547
vt 0.492330 0.105913
vt 0.668647 0.105913
vt 0.668647 0.000123
vt 0.774437 0.000123
vt 0.774437 0.458547
s 0
usemtl Floor_material
f 49/25/13 50/26/13 51/27/13 52/28/13 53/29/13 54/30/13
o Ceiling
v 0.000000 7.000000 0.000000
v 10.000000 7.000000 0.000000
v 10.000000 7.000000 -5.000000
v 13.000000 7.000000 -5.000000
v 13.000000 7.000000 -8.000000
v 0.000000 7.000000 -8.000000
vn -0.0000 1.0000 -0.0000
vt 0.209976 0.458547
vt 0.209976 0.105913
vt 0.386293 0.105913
vt 0.386293 0.000123
vt 0.492083 0.000123
vt 0.492083 0.458547
s 0
usemtl Ceiling_material
f 55/31/14 56/32/14 57/33/14 58/34/14 59/35/14 60/36/14
